<svg width="32" height="32" viewBox="0 0 32 32" fill="none" xmlns="http://www.w3.org/2000/svg">
<g clip-path="url(#clip0_890_2878)">
<path d="M15.6694 17.2009L6.95874 13.7493V23.5138C7.63327 23.3768 8.32353 23.3083 9.03498 23.3083C11.7646 23.3083 14.2255 24.3464 15.6799 26.0433C17.1343 24.3465 19.59 23.3083 22.3248 23.3083C23.0362 23.3083 23.7371 23.3768 24.4011 23.5138V13.9917L16.3123 17.2061H15.6694V17.2009Z" fill="white"/>
<path d="M31.4361 9.54945L16.3229 3.55272C16.1175 3.46843 15.875 3.46843 15.6695 3.55272L0.545846 9.54945C-0.223482 9.91308 -0.139197 10.9406 0.545846 11.2041L5.18309 13.0432V24.6784C5.22523 25.2634 5.70478 25.7429 6.36349 25.5163C7.20138 25.2265 8.10243 25.0842 9.04041 25.0842C11.6489 25.0842 14.0044 26.2698 14.9002 28.0247C15.2427 28.6359 16.1122 28.7097 16.4864 28.0194C17.3769 26.2646 19.7219 25.0842 22.3304 25.0842C23.2683 25.0842 24.1747 25.2265 25.0073 25.5163C25.5816 25.7113 26.1719 25.2792 26.1877 24.6784V13.2856L30.2189 11.6836V20.6208C30.2189 21.1109 30.6141 21.5114 31.1095 21.5114C31.5996 21.5114 32 21.1162 32 20.6208V10.382C31.9999 10.0027 31.7786 9.74443 31.4361 9.54945ZM24.4117 23.5138C23.7372 23.3768 23.0469 23.3083 22.3355 23.3083C19.6058 23.3083 17.1449 24.3464 15.6906 26.0433C14.2309 24.3465 11.7647 23.3083 9.04563 23.3083C8.33426 23.3083 7.6334 23.3768 6.96939 23.5138V13.7493L15.68 17.2008H16.3335L24.4223 13.9864V23.5085H24.4117V23.5138V23.5138ZM15.9962 15.4198L3.28602 10.382L15.9962 5.34431L28.6959 10.382L15.9962 15.4198Z" fill="#3F4145"/>
<path d="M8.72933 16.3735H11.1375C11.6276 16.3735 12.028 16.7687 12.028 17.2641C12.028 17.7541 11.6329 18.1546 11.1375 18.1546H8.72933V19.6828H9.88862C10.3787 19.6828 10.7792 20.0779 10.7792 20.5733C10.7792 21.0634 10.384 21.4638 9.88862 21.4638H8.72933V21.5323C8.82943 21.5323 12.9924 21.4954 15.6746 23.6296C17.44 22.3016 19.7902 21.527 22.3196 21.527C22.4197 21.527 22.5199 21.527 22.62 21.5323V15.3247H21.0338L16.3228 17.1954H15.6693L10.953 15.3247H8.72925L8.72933 16.3735Z" fill="#D8CBE5"/>
<path d="M15.996 15.4197L16.2173 15.3301H15.7747L15.996 15.4197Z" fill="#D8CBE5"/>
<path d="M3.28613 10.3822L15.9964 15.4199L28.6961 10.3822L15.9964 5.33398L3.28613 10.3822Z" fill="#D8CBE5"/>
</g>
<defs>
<clipPath id="clip0_890_2878">
<rect width="32" height="32" fill="white"/>
</clipPath>
</defs>
</svg>
