<svg width="32" height="32" viewBox="0 0 32 32" fill="none" xmlns="http://www.w3.org/2000/svg">
<path d="M19.6471 26.0318L12.2698 28.3184V12.9333L14.0436 12.3828C15.662 16.0903 18.8944 20.5459 19.6048 21.4962V26.0318H19.6471V26.0318Z" fill="#D8CBE5"/>
<path d="M20.3575 3.3916C17.2428 3.3916 14.7163 5.91813 14.7163 9.0328C14.7163 11.437 18.3438 17.0406 20.3575 19.84C22.3712 17.0406 25.9987 11.437 25.9987 9.0328C25.994 5.91813 23.4722 3.3916 20.3575 3.3916Z" fill="#D8CBE5"/>
<path d="M20.3575 6.54858C18.979 6.54858 17.8733 7.65425 17.8733 9.03276C17.8733 10.4113 18.979 11.5169 20.3575 11.5169C21.736 11.5169 22.8417 10.4113 22.8417 9.03276C22.8417 7.65425 21.736 6.54858 20.3575 6.54858Z" fill="white"/>
<path d="M24.4178 9.03286C24.4178 6.78391 22.6016 4.96777 20.3527 4.96777C18.1037 4.96777 16.2876 6.78391 16.2876 9.03286C16.2876 11.2818 18.1037 13.0979 20.3527 13.0979C22.6016 13.0979 24.4178 11.2818 24.4178 9.03286ZM17.8686 9.03286C17.8686 7.65435 18.9742 6.54869 20.3528 6.54869C21.7313 6.54869 22.8369 7.65435 22.8369 9.03286C22.8369 10.4114 21.7313 11.517 20.3528 11.517C19.0165 11.517 17.8686 10.4161 17.8686 9.03286Z" fill="#3F4145"/>
<path d="M21.2231 21.3409V26.074L28.6005 28.3606V12.9756L26.6667 12.3828C25.1658 15.855 22.1688 20.0377 21.2231 21.3409Z" fill="white"/>
<path d="M3.354 26.0318L10.7313 28.3607V12.9756L3.354 10.689V26.0318Z" fill="#F2EFF4"/>
<path d="M29.6262 11.6346L27.2173 10.8865C27.4525 10.1761 27.5702 9.54564 27.5702 8.99514C27.5702 5.01011 24.3379 1.77783 20.3529 1.77783C16.3678 1.77783 13.1355 5.01011 13.1355 8.99521C13.1355 9.54571 13.2531 10.2185 13.4883 10.929L11.4747 11.5594L2.80351 8.83524C2.29071 8.67527 1.77783 9.07046 1.77783 9.58334V26.6246C1.77783 26.9774 2.01305 27.2551 2.32833 27.3727L11.2442 30.1768C11.3618 30.2144 11.597 30.2568 11.7193 30.1768L20.3952 27.4573L29.1134 30.1767C29.6262 30.3367 30.1391 29.9792 30.1391 29.4286V12.3875C30.1767 12.0722 29.9415 11.757 29.6262 11.6346ZM19.6471 26.0317L12.2698 28.3183V12.9332L14.0435 12.3827C15.662 16.0902 18.8944 20.5458 19.6048 21.4961V26.0317H19.6471V26.0317ZM28.6006 28.3607L21.2232 26.0741V21.3409C22.1689 20.0376 25.1283 15.8973 26.6668 12.3875L28.6006 12.9802V28.3607ZM20.3576 3.39164C23.4722 3.39164 25.9988 5.91817 25.9988 9.03284C25.9988 11.437 22.3713 17.0406 20.3576 19.84C18.3439 17.003 14.7164 11.4418 14.7164 9.03284C14.7163 5.91817 17.2805 3.39164 20.3576 3.39164ZM10.7313 28.3607L3.35394 26.0317V10.6889L10.7313 12.9755V28.3607Z" fill="#3F4145"/>
</svg>
