<svg width="32" height="32" viewBox="0 0 32 32" fill="none" xmlns="http://www.w3.org/2000/svg">
<path d="M22.9132 23.7424C22.3195 25.3211 21.5702 26.7066 20.6606 27.7339C22.753 26.9045 24.6097 25.4814 25.9527 23.7424H22.9132Z" fill="white"/>
<path d="M16.7917 22.164H21.7681C22.2441 20.5429 22.5599 18.7286 22.6352 16.7917H16.7917V22.164Z" fill="white"/>
<path d="M21.2168 23.7424H16.7917V28.5633C18.5683 28.1298 20.147 26.3107 21.2168 23.7424Z" fill="white"/>
<path d="M16.7917 3.43652V8.25735H21.2168C20.147 5.68908 18.5683 3.87004 16.7917 3.43652Z" fill="white"/>
<path d="M21.7681 9.83594H16.7917V15.2082H22.6399C22.5598 13.276 22.2441 11.4571 21.7681 9.83594Z" fill="white"/>
<path d="M27.0602 9.83594H23.4646C23.8981 11.457 24.1762 13.2713 24.2139 15.2082H28.6389C28.4834 13.276 27.932 11.4571 27.0602 9.83594Z" fill="white"/>
<path d="M20.7031 4.26587C21.6126 5.33088 22.3619 6.67392 22.9557 8.25736H26.0377C24.6145 6.51843 22.7955 5.09528 20.7031 4.26587Z" fill="white"/>
<path d="M23.427 22.164H27.0226C27.9321 20.5429 28.4834 18.7286 28.6013 16.7917H24.214C24.1385 18.7239 23.8605 20.5052 23.427 22.164Z" fill="white"/>
<path d="M8.57323 22.164C8.13971 20.5429 7.86162 18.7286 7.82393 16.7917H3.39893C3.51673 18.7286 4.07278 20.5429 4.97763 22.164H8.57323Z" fill="white"/>
<path d="M15.2085 16.7917H9.36499C9.4451 18.7286 9.71839 20.5429 10.2321 22.164H15.2085V16.7917Z" fill="white"/>
<path d="M11.2971 27.7339C10.3876 26.6689 9.63826 25.3259 9.04452 23.7424H5.96729C7.3857 25.4814 9.20474 26.9045 11.2971 27.7339Z" fill="white"/>
<path d="M10.7834 8.25735H15.2085V3.43652C13.4319 3.87004 11.8532 5.68908 10.7834 8.25735Z" fill="white"/>
<path d="M3.39893 15.2082H7.82393C7.86162 13.2713 8.13964 11.4948 8.57323 9.83594H4.93995C4.06811 11.4571 3.5168 13.276 3.39893 15.2082Z" fill="white"/>
<path d="M15.2085 28.5635V23.7427H10.7834C11.8532 26.3109 13.4319 28.1299 15.2085 28.5635Z" fill="white"/>
<path d="M15.2085 9.83594H10.2321C9.75615 11.457 9.44036 13.2713 9.36499 15.2082H15.2131V9.83594H15.2085Z" fill="white"/>
<path d="M6.00488 8.25736H9.08685C9.68059 6.67865 10.4299 5.29319 11.3394 4.26587C9.20465 5.09528 7.38561 6.51843 6.00488 8.25736Z" fill="white"/>
<path d="M16.0001 27.0602C9.91626 27.0602 4.93994 22.0838 4.93994 16.0001C4.93994 9.91633 9.91626 4.93994 16.0001 4.93994C22.0839 4.93994 27.0602 9.91633 27.0602 16.0001C27.0602 22.0838 22.0839 27.0602 16.0001 27.0602Z" fill="#D8CBE5"/>
<path d="M16.0001 1.77783C8.13968 1.77783 1.77783 8.13968 1.77783 16.0001C1.77783 23.8604 8.13968 30.2223 16.0001 30.2223C23.8604 30.2223 30.2223 23.8604 30.2223 16.0001C30.2223 8.13968 23.8604 1.77783 16.0001 1.77783ZM24.2186 15.2083C24.1809 13.2715 23.9029 11.4949 23.4693 9.83612H27.0649C27.9744 11.4572 28.5257 13.2715 28.6436 15.2083H24.2186ZM28.6012 16.7918C28.4834 18.7286 27.9274 20.5429 27.0225 22.164H23.4269C23.8605 20.5429 24.1385 18.7286 24.1762 16.7918H28.6012ZM22.9132 8.25748C22.3195 6.67877 21.5702 5.29331 20.6607 4.26599C22.753 5.0954 24.572 6.51855 25.9528 8.25748H22.9132ZM16.7918 15.2083V9.83612H21.7682C22.2441 11.4572 22.5599 13.2715 22.6353 15.2083H16.7918ZM22.6352 16.7918C22.5551 18.7286 22.2818 20.5429 21.7681 22.164H16.7917V16.7918H22.6352ZM16.7918 8.25748V3.43665C18.5684 3.87017 20.1518 5.68921 21.2168 8.25748H16.7918ZM16.7918 23.7426H21.2168C20.1518 26.3109 18.5684 28.1299 16.7918 28.5635V23.7426ZM20.7031 27.7341C21.6126 26.6691 22.3619 25.3261 22.9556 23.7426H26.0376C24.6145 25.4816 22.7954 26.9047 20.7031 27.7341ZM10.232 22.164C9.75608 20.5429 9.44029 18.7286 9.36492 16.7918H15.2131V22.164H10.232ZM15.2083 23.7426V28.5635C13.4317 28.1299 11.8483 26.3109 10.7833 23.7426H15.2083ZM9.36492 15.2083C9.44503 13.2715 9.71832 11.4572 10.232 9.83612H15.2084V15.2083H9.36492ZM9.08689 8.25748H6.00492C7.38565 6.48086 9.20469 5.0954 11.297 4.26599C10.4299 5.331 9.6382 6.67411 9.08689 8.25748ZM8.57319 9.83612C8.13968 11.4572 7.86158 13.2715 7.8239 15.2083H3.39889C3.51669 13.2715 4.07274 11.4572 4.9776 9.83612H8.57319ZM7.78154 16.7918C7.81923 18.7286 8.09726 20.5052 8.53084 22.164H4.93991C4.03039 20.5429 3.47908 18.7286 3.36121 16.7918H7.78154ZM9.08689 23.7426C9.68063 25.3213 10.4299 26.7068 11.3394 27.7341C9.24712 26.9047 7.39038 25.4816 6.04735 23.7426H9.08689ZM15.2083 8.25748H10.7833C11.8483 5.68921 13.4317 3.87017 15.2083 3.43665V8.25748Z" fill="#3F4145"/>
</svg>
