<svg width="17" height="21" viewBox="0 0 17 21" fill="none" xmlns="http://www.w3.org/2000/svg">
<g filter="url(#filter0_d_2385_901)">
<path d="M8.49994 0.324951C6.0523 0.324951 4.06824 2.20995 4.06824 4.53578C4.06824 5.42953 4.36378 6.29793 4.90918 7.00578C4.92543 7.09668 4.95539 7.18453 4.99906 7.26578L7.63 12.1682C7.80774 12.481 8.13985 12.6745 8.49989 12.6745C8.85992 12.6745 9.19203 12.481 9.36977 12.1682L12.0007 7.25668C12.0444 7.17543 12.0743 7.08758 12.0906 6.99668C12.636 6.28879 12.9315 5.42043 12.9315 4.52668C12.9315 2.21008 10.9475 0.325081 8.49984 0.325081L8.49994 0.324951ZM8.38822 6.31821C7.40154 6.31821 6.60072 5.5575 6.60072 4.62054C6.60072 3.68312 7.40154 2.92287 8.38822 2.92287C9.37489 2.92287 10.1757 3.68358 10.1757 4.62054C10.1757 5.5575 9.37489 6.31821 8.38822 6.31821Z" fill="#6277F0"/>
</g>
<defs>
<filter id="filter0_d_2385_901" x="-2" y="0" width="21" height="21" filterUnits="userSpaceOnUse" color-interpolation-filters="sRGB">
<feFlood flood-opacity="0" result="BackgroundImageFix"/>
<feColorMatrix in="SourceAlpha" type="matrix" values="0 0 0 0 0 0 0 0 0 0 0 0 0 0 0 0 0 0 127 0" result="hardAlpha"/>
<feOffset dy="4"/>
<feGaussianBlur stdDeviation="2"/>
<feComposite in2="hardAlpha" operator="out"/>
<feColorMatrix type="matrix" values="0 0 0 0 0 0 0 0 0 0 0 0 0 0 0 0 0 0 0.25 0"/>
<feBlend mode="normal" in2="BackgroundImageFix" result="effect1_dropShadow_2385_901"/>
<feBlend mode="normal" in="SourceGraphic" in2="effect1_dropShadow_2385_901" result="shape"/>
</filter>
</defs>
</svg>
